<svg width="141" height="142" viewBox="0 0 141 142" fill="none" xmlns="http://www.w3.org/2000/svg">
<circle cx="70.7266" cy="70.7609" r="70.2734" fill="black"/>
<path d="M24.206 41.7609V25.4309H29.082C30.8913 25.4309 32.2713 25.8143 33.222 26.5809C34.1727 27.3323 34.648 28.4209 34.648 29.8469C34.648 30.5063 34.4947 31.1043 34.188 31.6409C33.8967 32.1623 33.452 32.5839 32.854 32.9059C32.2713 33.2126 31.5507 33.3889 30.692 33.4349V33.2739C31.7347 33.3046 32.5933 33.4886 33.268 33.8259C33.958 34.1633 34.4717 34.6309 34.809 35.2289C35.1617 35.8116 35.338 36.4863 35.338 37.2529C35.338 38.7096 34.8397 39.8289 33.843 40.6109C32.8463 41.3776 31.4357 41.7609 29.611 41.7609H24.206ZM27.035 39.1849H29.611C30.5617 39.1696 31.2593 38.9779 31.704 38.6099C32.164 38.2266 32.394 37.6976 32.394 37.0229C32.394 36.3023 32.1563 35.7426 31.681 35.3439C31.221 34.9453 30.531 34.7459 29.611 34.7459H27.035V39.1849ZM27.035 32.2159H29.082C29.9867 32.2159 30.646 32.0319 31.06 31.6639C31.4893 31.2959 31.704 30.7746 31.704 30.0999C31.704 29.4253 31.4893 28.9116 31.06 28.5589C30.646 28.1909 29.9867 28.0069 29.082 28.0069H27.035V32.2159ZM37.997 41.7609V39.1389H41.723V28.0529H37.997V25.4309H48.301V28.0529H44.575V39.1389H48.301V41.7609H37.997ZM55.514 41.7609V28.0529H50.96V25.4309H62.92V28.0529H58.366V41.7609H55.514ZM70.8231 42.1289C69.4891 42.1289 68.3621 41.7839 67.4421 41.0939C66.5221 40.4039 65.8167 39.4226 65.3261 38.1499C64.8507 36.8773 64.6131 35.3669 64.6131 33.6189C64.6131 31.8556 64.8507 30.3376 65.3261 29.0649C65.8167 27.7923 66.5221 26.8109 67.4421 26.1209C68.3621 25.4156 69.4891 25.0629 70.8231 25.0629C72.3564 25.0629 73.6367 25.5689 74.6641 26.5809C75.6914 27.5929 76.3507 29.0266 76.6421 30.8819L73.7211 31.0199C73.5217 29.9159 73.1614 29.0803 72.6401 28.5129C72.1341 27.9303 71.5284 27.6389 70.8231 27.6389C70.1024 27.6389 69.4967 27.8766 69.0061 28.3519C68.5307 28.8119 68.1704 29.4866 67.9251 30.3759C67.6797 31.2653 67.5571 32.3463 67.5571 33.6189C67.5571 34.8763 67.6797 35.9496 67.9251 36.8389C68.1704 37.7283 68.5307 38.4029 69.0061 38.8629C69.4967 39.3229 70.1024 39.5529 70.8231 39.5529C71.5591 39.5529 72.1954 39.2463 72.7321 38.6329C73.2687 38.0043 73.6291 37.0919 73.8131 35.8959L76.7341 36.0109C76.4581 37.9429 75.7987 39.4456 74.7561 40.5189C73.7287 41.5923 72.4177 42.1289 70.8231 42.1289ZM78.8181 41.7609V25.4309H81.6701V33.2279L80.5201 32.2389H88.5241L87.3741 33.2279V25.4309H90.2261V41.7609H87.3741V33.8719L88.5241 34.8609H80.5201L81.6701 33.8719V41.7609H78.8181ZM91.8961 41.7609L96.5421 25.4309H100.084L104.73 41.7609H101.809L98.3131 28.6509L94.8171 41.7609H91.8961ZM94.7481 37.8969L95.5301 35.3439H101.096L101.878 37.8969H94.7481ZM110.678 41.7609V28.0529H106.124V25.4309H118.084V28.0529H113.53V41.7609H110.678Z" fill="#2EC954"/>
<path d="M44.7545 78.2089V75.6329L53.8855 71.6769V72.4589L44.7545 68.5029V65.9499L55.3345 70.5269V73.6319L44.7545 78.2089ZM65.5886 78.7609V75.5179H68.9466V78.7609H65.5886ZM75.9386 78.7609V75.5179H79.2966V78.7609H75.9386ZM86.2886 78.7609V75.5179H89.6466V78.7609H86.2886Z" fill="#2EC954"/>
<path d="M43.241 116.129C41.907 116.129 40.78 115.784 39.86 115.094C38.94 114.404 38.2347 113.423 37.744 112.15C37.2687 110.877 37.031 109.367 37.031 107.619C37.031 105.856 37.2687 104.338 37.744 103.065C38.2347 101.792 38.94 100.811 39.86 100.121C40.78 99.4156 41.907 99.0629 43.241 99.0629C44.7744 99.0629 46.0547 99.5689 47.082 100.581C48.1094 101.593 48.7687 103.027 49.06 104.882L46.139 105.02C45.9397 103.916 45.5794 103.08 45.058 102.513C44.552 101.93 43.9464 101.639 43.241 101.639C42.5204 101.639 41.9147 101.877 41.424 102.352C40.9487 102.812 40.5884 103.487 40.343 104.376C40.0977 105.265 39.975 106.346 39.975 107.619C39.975 108.876 40.0977 109.95 40.343 110.839C40.5884 111.728 40.9487 112.403 41.424 112.863C41.9147 113.323 42.5204 113.553 43.241 113.553C43.977 113.553 44.6134 113.246 45.15 112.633C45.6867 112.004 46.047 111.092 46.231 109.896L49.152 110.011C48.876 111.943 48.2167 113.446 47.174 114.519C46.1467 115.592 44.8357 116.129 43.241 116.129ZM50.523 115.761L55.169 99.4309H58.711L63.357 115.761H60.436L56.94 102.651L53.444 115.761H50.523ZM53.375 111.897L54.157 109.344H59.723L60.505 111.897H53.375ZM70.8921 116.129C69.6961 116.129 68.6534 115.891 67.7641 115.416C66.8901 114.941 66.2001 114.274 65.6941 113.415C65.1881 112.541 64.8891 111.514 64.7971 110.333L67.6951 110.172C67.8024 110.923 67.9941 111.552 68.2701 112.058C68.5614 112.549 68.9371 112.924 69.3971 113.185C69.8724 113.43 70.4167 113.553 71.0301 113.553C71.6127 113.553 72.1034 113.476 72.5021 113.323C72.9161 113.17 73.2304 112.94 73.4451 112.633C73.6597 112.326 73.7671 111.958 73.7671 111.529C73.7671 111.069 73.6597 110.67 73.4451 110.333C73.2304 109.996 72.8471 109.681 72.2951 109.39C71.7431 109.099 70.9534 108.815 69.9261 108.539C68.8221 108.248 67.9174 107.91 67.2121 107.527C66.5067 107.144 65.9854 106.668 65.6481 106.101C65.3107 105.518 65.1421 104.79 65.1421 103.916C65.1421 102.935 65.3567 102.084 65.7861 101.363C66.2307 100.627 66.8671 100.06 67.6951 99.6609C68.5384 99.2623 69.5427 99.0629 70.7081 99.0629C71.8581 99.0629 72.8394 99.2853 73.6521 99.7299C74.4647 100.159 75.1011 100.78 75.5611 101.593C76.0364 102.39 76.3277 103.341 76.4351 104.445L73.5141 104.583C73.4374 103.985 73.2764 103.471 73.0311 103.042C72.8011 102.597 72.4791 102.252 72.0651 102.007C71.6664 101.762 71.1757 101.639 70.5931 101.639C69.8111 101.639 69.1901 101.838 68.7301 102.237C68.2701 102.62 68.0401 103.126 68.0401 103.755C68.0401 104.2 68.1397 104.568 68.3391 104.859C68.5537 105.15 68.9141 105.411 69.4201 105.641C69.9261 105.871 70.6391 106.101 71.5591 106.331C72.8317 106.668 73.8361 107.067 74.5721 107.527C75.3234 107.987 75.8601 108.539 76.1821 109.183C76.5041 109.827 76.6651 110.586 76.6651 111.46C76.6651 112.395 76.4274 113.216 75.9521 113.921C75.4767 114.626 74.8097 115.171 73.9511 115.554C73.0924 115.937 72.0727 116.129 70.8921 116.129ZM78.8181 115.761V99.4309H81.6701V107.228L80.5201 106.239H88.5241L87.3741 107.228V99.4309H90.2261V115.761H87.3741V107.872L88.5241 108.861H80.5201L81.6701 107.872V115.761H78.8181ZM98.3131 116.129C96.5498 116.129 95.1698 115.608 94.1731 114.565C93.1918 113.507 92.7011 112.02 92.7011 110.103V99.4309H95.5531V110.287C95.5531 111.33 95.7831 112.135 96.2431 112.702C96.7184 113.269 97.4084 113.553 98.3131 113.553C99.2178 113.553 99.9001 113.269 100.36 112.702C100.835 112.135 101.073 111.33 101.073 110.287V99.4309H103.925V110.103C103.925 112.02 103.427 113.507 102.43 114.565C101.449 115.608 100.076 116.129 98.3131 116.129Z" fill="#2EC954"/>
</svg>
